<svg width="14" height="14" viewBox="0 0 14 14" fill="none" xmlns="http://www.w3.org/2000/svg">
<path d="M3.03571 7.02608C2.43647 6.45407 1.48698 6.47615 0.914967 7.0754C0.342958 7.67464 0.365039 8.62414 0.964286 9.19614L3.03571 7.02608ZM13.2904 2.7647C13.7128 2.05201 13.4774 1.1319 12.7647 0.709563C12.052 0.287229 11.1319 0.522608 10.7096 1.2353L13.2904 2.7647ZM5.98311 11.9132L4.94739 12.9982L5.98311 11.9132ZM6.13818 11.8918L4.84775 11.1271L6.13818 11.8918ZM0.964286 9.19614L4.94739 12.9982L7.01882 10.8281L3.03571 7.02608L0.964286 9.19614ZM7.42862 12.6565L13.2904 2.7647L10.7096 1.2353L4.84775 11.1271L7.42862 12.6565ZM4.94739 12.9982C5.69186 13.7088 6.90393 13.5419 7.42862 12.6565L4.84775 11.1271C5.30685 10.3524 6.36741 10.2063 7.01882 10.8281L4.94739 12.9982Z" fill="#264796"/>
</svg>
