<svg width="150" height="150" viewBox="0 0 150 150" fill="none" xmlns="http://www.w3.org/2000/svg">
<circle cx="75" cy="75" r="75" fill="#DEE3EF"/>
<path d="M59.1213 75.8787C57.9497 74.7071 56.0503 74.7071 54.8787 75.8787C53.7071 77.0503 53.7071 78.9497 54.8787 80.1213L59.1213 75.8787ZM95.5913 58.5116C96.4262 57.0805 95.9428 55.2435 94.5116 54.4087C93.0805 53.5738 91.2435 54.0572 90.4087 55.4884L95.5913 58.5116ZM72.6536 91.8795L75.245 93.3911L72.6536 91.8795ZM54.8787 80.1213L68.9614 94.2041L73.2041 89.9614L59.1213 75.8787L54.8787 80.1213ZM75.245 93.3911L95.5913 58.5116L90.4087 55.4884L70.0623 90.3679L75.245 93.3911ZM68.9614 94.2041C70.8159 96.0586 73.9235 95.6565 75.245 93.3911L70.0623 90.3679C70.723 89.2352 72.2768 89.0342 73.2041 89.9614L68.9614 94.2041Z" fill="#264796"/>
</svg>
