<svg width="25" height="25" viewBox="0 0 25 25" fill="none" xmlns="http://www.w3.org/2000/svg">
<g clip-path="url(#clip0_112_223)">
<path d="M1.58691 0.0683594C0.864256 0.249023 0.263671 0.844727 0.0683583 1.58203C0.0146474 1.78711 -1.00891e-06 3.45703 -1.00891e-06 11.4502C-1.00891e-06 21.9824 -0.0146494 21.3672 0.278319 21.875C0.458983 22.1777 0.820311 22.5293 1.10351 22.6709C1.23535 22.7344 2.8125 23.2812 4.61425 23.8818L7.88574 24.9756H8.32519C8.8623 24.9756 9.16503 24.8779 9.57031 24.5801C9.89746 24.3408 10.1611 23.9795 10.3027 23.5693C10.3809 23.3447 10.4004 23.1689 10.4004 22.583V21.875H12.124C14.0869 21.875 14.2822 21.8506 14.9414 21.5283C15.7324 21.1426 16.3721 20.3369 16.5723 19.4824C16.6846 19.0088 16.6846 14.4385 16.5771 14.1699C16.25 13.3887 15.1172 13.3398 14.707 14.0869C14.6338 14.2139 14.6191 14.5215 14.5996 16.626L14.5752 19.0186L14.4531 19.2383C14.3848 19.3555 14.2334 19.5215 14.1211 19.6045L13.9062 19.751L12.1533 19.7656L10.4004 19.7803L10.3906 11.709L10.376 3.6377L10.2197 3.31055C9.96582 2.77344 9.62402 2.45605 9.03808 2.21191L8.76464 2.09961L11.3379 2.11426L13.9062 2.12402L14.1211 2.27051C14.2334 2.35352 14.3848 2.51953 14.4531 2.63672L14.5752 2.85645L14.5996 4.74609L14.624 6.63086L14.7705 6.84082C14.9902 7.15332 15.2783 7.28516 15.6787 7.26562C16.0498 7.24609 16.2988 7.10938 16.5039 6.80176L16.626 6.62109L16.6406 4.68262C16.6553 2.49512 16.6406 2.36328 16.3184 1.70898C16.0547 1.17188 15.498 0.620117 14.9414 0.34668C14.1992 -0.0146484 14.5459 0 7.83691 0.00488281C3.23242 0.00976562 1.77246 0.0244141 1.58691 0.0683594Z" fill="#CECFD2"/>
<path d="M19.3604 5.31738C19.1114 5.42969 18.8672 5.70312 18.8037 5.94238C18.7696 6.05469 18.75 6.76758 18.75 7.74902V9.375H16.5625H14.375L14.1162 9.50195C13.6768 9.72168 13.4619 10.1855 13.5791 10.6641C13.6572 10.9912 13.9942 11.3379 14.3164 11.416C14.4727 11.4551 15.2002 11.4746 16.6455 11.4746H18.75V13.0908C18.75 14.2334 18.7696 14.7705 18.8086 14.9121C18.9307 15.3076 19.3848 15.625 19.8291 15.625C20.2198 15.6201 20.3516 15.5078 22.5977 13.2666C24.8487 11.0205 25 10.8398 25 10.459C25 9.99512 25.0293 10.0293 22.6612 7.65137C21.1914 6.18164 20.3662 5.38574 20.2344 5.32227C19.9854 5.2002 19.6192 5.2002 19.3604 5.31738Z" fill="#CECFD2"/>
</g>
<defs>
<clipPath id="clip0_112_223">
<rect width="25" height="25" fill="white"/>
</clipPath>
</defs>
</svg>
